Coordinates
version=1
nRows=6
nColumns=46
inDegrees=yes

Units are S.I. units (second, meters, Newtons, ...)
Angles are in degrees.

endheader
time	pelvis_tilt	pelvis_list	pelvis_rotation	pelvis_tx	pelvis_ty	pelvis_tz	bb_angle	bb_tx	bb_ty	bb_tz	hip_flexion_r	hip_adduction_r	hip_rotation_r	knee_angle_r	knee_angle_r_beta	ankle_angle_r	subtalar_angle_r	mtp_angle_r	crank_angle_r	hip_flexion_l	hip_adduction_l	hip_rotation_l	knee_angle_l	knee_angle_l_beta	ankle_angle_l	subtalar_angle_l	mtp_angle_l	crank_angle_l	lumbar_extension	lumbar_bending	lumbar_rotation	arm_flex_r	arm_add_r	arm_rot_r	elbow_flex_r	pro_sup_r	wrist_flex_r	wrist_dev_r	arm_flex_l	arm_add_l	arm_rot_l	elbow_flex_l	pro_sup_l	wrist_flex_l	wrist_dev_l
      2.50000000	    -20.98707969	      4.79402236	      3.24466450	      0.17828528	      1.05922472	     -0.22241906	      0.00000000	      0.50000000	      0.00000000	      0.25000000	     48.20754558	    -12.10279505	     -4.49267952	     30.82743257	      0.53804020	    -29.89122542	     -1.15166408	      0.00000000	      0.00000000	     82.34787016	     -1.32061172	     -0.39219372	    114.95056470	      2.00626583	      3.21863318	    -10.00673874	      0.00000000	      0.00000000	    -51.47755044	     -1.18138729	     -6.21822931	     82.77759805	    -11.25830283	     29.79303522	     51.34469484	     43.12448051	      0.00000000	      0.00000000	     81.30153910	    -11.47321169	     22.67918119	     51.94120344	     44.47496139	      0.00000000	      0.00000000
      2.50500000	    -21.04523011	      4.84387108	      3.40011653	      0.17775891	      1.05930325	     -0.22169305	      0.00000000	      0.50000000	      0.00000000	      0.25000000	     47.50452068	    -12.07758026	     -4.55155777	     30.07049515	      0.52482915	    -31.13388397	     -1.94777869	      0.00000000	      0.00000000	     83.26766701	     -1.19487259	     -0.16281630	    115.40395343	      2.01417896	      4.40874999	     -8.92245956	      0.00000000	      0.00000000	    -51.37751299	     -1.22249818	     -6.39825641	     83.08766900	    -11.28457078	     30.60104972	     50.54544330	     43.16013857	      0.00000000	      0.00000000	     81.46744639	    -11.46919869	     22.88660327	     51.46253069	     44.45602743	      0.00000000	      0.00000000
      2.51000000	    -21.26949214	      5.12289958	      3.68996772	      0.17707331	      1.05916171	     -0.22142165	      0.00000000	      0.50000000	      0.00000000	      0.25000000	     47.10791037	    -12.40754543	     -4.52033228	     29.62441287	      0.51704354	    -31.66971940	     -1.94535122	      0.00000000	      0.00000000	     84.26275476	     -0.71905707	     -0.22664696	    115.65583755	      2.01857516	      5.08831655	     -9.05640306	      0.00000000	      0.00000000	    -51.18153287	     -1.36887466	     -6.77717205	     83.23198173	    -11.41928493	     30.70015474	     50.35782162	     43.15781602	      0.00000000	      0.00000000	     81.69077017	    -11.35432769	     22.94907790	     51.46523435	     44.46870112	      0.00000000	      0.00000000
      2.51500000	    -21.39138831	      5.31586922	      3.86870116	      0.17631353	      1.05922656	     -0.22081368	      0.00000000	      0.50000000	      0.00000000	      0.25000000	     46.59118895	    -12.51122936	     -4.42374385	     29.14133768	      0.50861229	    -32.53816793	     -2.62215267	      0.00000000	      0.00000000	     85.11927354	     -0.43616488	     -0.19460162	    115.82643150	      2.02155259	      6.12045107	     -8.49054238	      0.00000000	      0.00000000	    -51.04503565	     -1.52480668	     -7.13538459	     83.68961755	    -11.40729895	     31.61630114	     49.35384522	     43.20359132	      0.00000000	      0.00000000	     81.96374896	    -11.35383532	     23.22641514	     50.95104845	     44.46618696	      0.00000000	      0.00000000
      2.52000000	    -21.53162508	      5.67754235	      4.05180130	      0.17513544	      1.05908045	     -0.22070403	      0.00000000	      0.50000000	      0.00000000	      0.25000000	     46.23673100	    -12.80679960	     -4.11493534	     28.88996114	      0.50422494	    -32.89481015	     -2.84274041	      0.00000000	      0.00000000	     85.95906909	      0.01536014	     -0.38657326	    115.86643541	      2.02225079	      6.84654537	     -8.66125888	      0.00000000	      0.00000000	    -50.95270722	     -1.74843065	     -7.49555755	     83.98881298	    -11.48179262	     31.68907031	     49.16822861	     43.19875191	      0.00000000	      0.00000000	     82.17218674	    -11.25107909	     23.27408202	     50.93443759	     44.47594711	      0.00000000	      0.00000000
      2.52500000	    -21.68017989	      5.86657258	      4.38261188	      0.17432572	      1.05916262	     -0.22020166	      0.00000000	      0.50000000	      0.00000000	      0.25000000	     45.76340994	    -12.98699147	     -3.98088049	     28.62700125	      0.49963543	    -33.10592028	     -3.27437578	      0.00000000	      0.00000000	     86.73829454	      0.47269616	     -0.38036008	    115.79327914	      2.02097397	      7.63626314	     -8.75041953	      0.00000000	      0.00000000	    -50.85841181	     -1.86854413	     -7.89755094	     84.13058305	    -11.56927209	     31.74679076	     48.95067593	     43.18238492	      0.00000000	      0.00000000	     82.34900565	    -11.14367431	     23.31497412	     50.90372225	     44.47978424	      0.00000000	      0.00000000
